<?xml version="1.0" encoding="utf-8"?>
<!-- Generator: Adobe Illustrator 22.0.1, SVG Export Plug-In . SVG Version: 6.00 Build 0)  -->
<svg version="1.1" id="Layer_1" xmlns="http://www.w3.org/2000/svg" xmlns:xlink="http://www.w3.org/1999/xlink" x="0px" y="0px" width="155" height="55.05"
	 viewBox="0 0 152.3 54.2" style="enable-background:new 0 0 152.3 54.2;" xml:space="preserve">
<style type="text/css">
	.st0{fill:#FFFFFF;}
	.st1{fill:#D32D2D;}
</style>
<g>
	<g>
		<path class="st0" d="M48,18.3h6.9l2.5,8c0.2,0.5,0.3,1.1,0.5,1.7s0.4,1.3,0.5,2c0.2,0.7,0.4,1.4,0.5,2.1c0.2,0.7,0.3,1.4,0.4,2
			h0.2c0.1-0.7,0.2-1.4,0.4-2.1c0.2-0.8,0.4-1.5,0.5-2.2c0.2-0.7,0.4-1.4,0.5-2c0.2-0.6,0.3-1.1,0.4-1.4l2.4-8h6.9l1.6,22.9H67
			l-0.4-7.8c0-0.7-0.1-1.5-0.1-2.4s0-1.7-0.1-2.6c0-0.9,0-1.8,0-2.7s0-1.2,0-1.9h-0.1c-0.2,0.8-0.4,1.1-0.6,2s-0.4,1.7-0.6,2.5
			s-0.4,1.7-0.7,2.4c-0.2,0.8-0.4,1.5-0.7,2.2l-2.5,8.2H57L54.6,33c-0.2-0.7-0.4-1.4-0.7-2.2c-0.2-0.8-0.4-1.6-0.6-2.4
			c-0.2-0.8-0.4-1.7-0.6-2.5c-0.2-0.8-0.3-1.2-0.5-2h-0.1c0,0.8,0,1.1,0,2s0,1.8-0.1,2.7c0,0.9-0.1,1.8-0.1,2.6
			c0,0.8-0.1,1.6-0.1,2.2l-0.4,7.8h-5.1L48,18.3z"/>
		<path class="st0" d="M76.4,18.3h5.5v18.2H91v4.7H76.4V18.3z"/>
		<path class="st0" d="M102,17.8c1.6,0,3,0.2,4.2,0.5s2.2,0.7,3,1.2l-1.2,4c-0.9-0.5-1.9-0.9-2.9-1.1c-1-0.3-1.9-0.4-2.7-0.4
			c-1.1,0-2,0.2-2.5,0.6c-0.6,0.4-0.9,1-0.9,1.6c0,0.8,0.3,1.3,0.8,1.7c0.6,0.4,1.4,0.7,2.6,1.1l2.1,0.7c0.8,0.3,1.6,0.6,2.4,1.1
			c0.7,0.4,1.4,0.9,1.9,1.5s0.9,1.2,1.2,1.9c0.3,0.7,0.4,1.5,0.4,2.3c0,1-0.2,1.9-0.5,2.7s-0.9,1.6-1.7,2.3
			c-0.7,0.7-1.7,1.2-2.8,1.5c-1.1,0.4-2.5,0.6-4,0.6c-1.4,0-2.8-0.2-4.1-0.5c-1.3-0.3-2.5-0.7-3.6-1.3l1.2-4c1,0.5,2.1,0.9,3.1,1.2
			s2,0.4,3.1,0.4c1.3,0,2.2-0.2,2.8-0.6c0.6-0.4,0.9-1,0.9-1.7c0-0.2,0-0.5-0.1-0.7s-0.3-0.5-0.6-0.7c-0.3-0.2-0.7-0.5-1.2-0.7
			s-1.1-0.5-1.9-0.7l-1.8-0.6c-0.8-0.3-1.6-0.7-2.4-1.1c-0.7-0.4-1.4-0.8-1.9-1.4c-0.5-0.5-0.9-1.2-1.2-1.9
			c-0.3-0.7-0.4-1.5-0.4-2.5s0.2-1.9,0.6-2.8c0.4-0.8,0.9-1.6,1.7-2.2c0.7-0.6,1.7-1.1,2.7-1.5C99.4,18,100.6,17.8,102,17.8z"/>
		<path class="st1" d="M114,18.3h8.3c1.4,0,2.6,0.2,3.7,0.5s2.1,0.8,2.9,1.4c0.8,0.6,1.4,1.3,1.8,2.2c0.4,0.9,0.6,1.9,0.6,3
			c0,1.3-0.3,2.5-0.8,3.5s-1.2,1.8-2.1,2.4s-1.9,1.1-3,1.4c-1.2,0.3-2.4,0.5-3.7,0.5h-2.3v8.2H114V18.3z M119.6,28.9h2
			c0.5,0,1.1-0.1,1.6-0.2s1-0.3,1.3-0.6c0.4-0.3,0.7-0.6,0.9-1c0.2-0.4,0.3-0.9,0.3-1.5c0-1-0.4-1.8-1.1-2.4
			c-0.7-0.5-1.7-0.8-2.9-0.8h-2.2L119.6,28.9L119.6,28.9z"/>
		<path class="st1" d="M138.1,18.3h5.9l8.3,22.9h-5.9l-1.6-4.9h-7.7l-1.6,4.9h-5.8L138.1,18.3z M138.3,32.3h5.2l-0.9-2.8
			c-0.3-0.9-0.6-1.9-0.9-2.9c-0.3-1-0.6-2-0.8-2.8h0.1c-0.2,0.9-0.5,1.8-0.8,2.8s-0.6,2-0.9,2.9L138.3,32.3z"/>
	</g>
	<g>
		<path id="headCenter" class="st1" d="M20.4,12.1c2-0.1,5.3-2.1,5.1-6.9C25.4,1.4,22.5,0,20,0c-2.4,0.1-5.3,1.6-5.2,5.4
			C14.9,10.4,18.3,12.2,20.4,12.1z"/>
		<path id="headRight" class="st1" d="M35.5,16c1.8,0,4.8-1.6,4.8-6c0-3.3-2.6-4.7-4.8-4.7c-2.2,0-4.8,1.4-4.8,4.7
			C30.7,14.3,33.8,16,35.5,16z"/>
		<path id="headLeft" class="st1" d="M4.8,16c1.8,0,4.8-1.6,4.8-6c0-3.3-2.6-4.7-4.8-4.7C2.6,5.3,0,6.7,0,10C0,14.3,3,16,4.8,16z"/>
		<path id="CrestTop" class="st1" d="M9.7,20.2c-0.2,0.3-0.4,0.5-0.5,0.7c-2.1,3.2-2.7,7-2.7,10.7c0,3.6,0.7,7.4,2.7,10.4
			c1.1-1.1,1.7-2.4,2.2-4.1c-1.1-2.7-1.3-5.9-1-8.7c0.3-3.1,1.3-6.3,3.8-8.3l0,0c3.4-2.8,8.5-2.8,11.9,0l0,0
			c0.5,0.4,0.9,0.8,1.4,1.4l0,0c0.8,1.1,1.4,2.3,1.8,3.6l0,0c0.3,0.8,0.5,1.6,0.5,2.5l0,0c0.4,3.2,0.3,6.6-0.9,9.5
			c0.4,1.6,1.1,3,2.2,4.1c1.7-2.5,2.4-5.6,2.7-8.7c0.3-3.3,0-6.9-1.3-9.9l0,0l0,0l0,0l0,0c-0.4-0.9-0.8-1.8-1.4-2.5
			C26.3,13.4,15.1,13.3,9.7,20.2L9.7,20.2L9.7,20.2z"/>
		<path id="CrestBottom" class="st1" d="M32.4,19.5c0.7,1.1,1.4,2.2,1.8,3.3c0.7-0.2,1.4-0.4,1.9-0.5c0,2.3,0,4.7,0,7
			c0,2.6,0.2,5.3-0.2,7.9c-0.5,3-1.8,5.8-3.8,8c-5.7-3.2-6.9-11.4-4.2-17c-0.3-1.8-0.9-3.2-1.7-4.4c-1.9,2.4-2.9,5.4-3.2,8.4
			c-0.4,3.6,0,7.4,1.7,10.6l0,0l0,0c1.2,2.3,2.8,3.9,4.4,5c-5.3,3.4-12.5,3.4-17.8,0c1.8-1.3,3.3-3,4.4-5l0,0
			c1.7-3.2,2.1-7,1.7-10.6c-0.3-3.1-1.3-6-3.2-8.4c-0.8,1.2-1.4,2.6-1.7,4.4c2.7,5.7,1.4,13.7-4.2,17c-2.8-3.2-4-7.1-4-11.3
			c0-3,0-6,0-8.9c0-0.9,0-1.9,0-2.8c0.5,0.1,1.2,0.3,1.9,0.5c0.5-1.3,1.2-2.4,1.8-3.3c-2.4-0.9-5-1.1-7.5-1.1c0,4.7,0,9.4,0,14.1
			c0,2.3,0,4.7,0.5,7c0.9,4,3.2,7.5,6.2,10.1c6.5,5.5,16.2,6.1,23.4,1.8c3.4-2.1,6.2-5.2,7.8-9c1.1-2.7,1.4-5.5,1.4-8.5
			c0-5,0-10.1,0-15.1c0-0.2,0-0.3,0-0.5C37.2,18.4,34.8,18.6,32.4,19.5z"/>
	</g>
</g>
</svg>
